{"title":"Sta dixtya tou pepromenou ep 41.TVrip.By.Ari Greek Subs","uid":12310524,"size":646630550,"categoryP":"video","categoryS":"tv_shows","magnet":"?xt=urn:btih:8baadca5da6b9518d8d11eb8df57aaecd57e41ee&amp;dn=Sta+dixtya+tou+pepromenou+ep+41.TVrip.By.Ari+Greek+Subs&amp;tr=udp%3A%2F%2Ftracker.openbittorrent.com%3A80&amp;tr=udp%3A%2F%2Fopen.demonii.com%3A1337&amp;tr=udp%3A%2F%2Ftracker.coppersurfer.tk%3A6969&amp;tr=udp%3A%2F%2Fexodus.desync.com%3A6969","seeders":0,"leechers":0,"uploader":"Aris2015","files":1,"time":1440861434,"description":"General\nComplete name                    : C:UsersVideossta.dixtya.tou.pepromenou.ep.41.TVrip.By.Ari.avi\nFormat                           : AVI\nFormat/Info                      : Audio Video Interleave\nFile size                        : 617 MiB\nDuration                         : 1h 6mn\nOverall bit rate                 : 1 301 Kbps\n\nVideo\nID                               : 0\nFormat                           : MPEG-4 Visual\nFormat profile                   : Simple@L3\nFormat settings, BVOP            : No\nFormat settings, QPel            : No\nFormat settings, GMC             : No warppoints\nFormat settings, Matrix          : Default (H.263)\nCodec ID                         : XVID\nCodec ID/Hint                    : XviD\nDuration                         : 1h 6mn\nBit rate                         : 1 160 Kbps\nWidth                            : 720 pixels\nHeight                           : 576 pixels\nDisplay aspect ratio             : 16:9\nFrame rate                       : 25.000 fps\nStandard                         : PAL\nColor space                      : YUV\nChroma subsampling               : 4:2:0\nBit depth                        : 8 bits\nScan type                        : Progressive\nCompression mode                 : Lossy\nBits/(Pixel*Frame)               : 0.112\nStream size                      : 550 MiB (89%)\nWriting library                  : XviD 64\n\nAudio\nID                               : 1\nFormat                           : MPEG Audio\nFormat version                   : Version 1\nFormat profile                   : Layer 3\nMode                             : Joint stereo\nMode extension                   : MS Stereo\nCodec ID                         : 55\nCodec ID/Hint                    : MP3\nDuration                         : 1h 6mn\nBit rate mode                    : Constant\nBit rate                         : 128 Kbps\nChannel(s)                       : 2 channels\nSampling rate                    : 44.1 KHz\nCompression mode                 : Lossy\nStream size                      : 60.7 MiB (10%)\nAlignment                        : Aligned on interleaves\nInterleave, duration             : 26 ms (0.65 video frame)\nWriting library                  : LAME3.99.3ÅžÅž\n\n &lt;a href=&quot;\nhttps://imageshack.com/i/pansf98vj&quot; rel=&quot;nofollow&quot; target=&quot;_NEW&quot;&gt;\nhttps://imageshack.com/i/pansf98vj&lt;/a&gt;","torrent":{"xt":"urn:btih:8baadca5da6b9518d8d11eb8df57aaecd57e41ee","amp;dn":"Sta+dixtya+tou+pepromenou+ep+41.TVrip.By.Ari+Greek+Subs","amp;tr":["udp%3A%2F%2Ftracker.openbittorrent.com%3A80","udp%3A%2F%2Fopen.demonii.com%3A1337","udp%3A%2F%2Ftracker.coppersurfer.tk%3A6969","udp%3A%2F%2Fexodus.desync.com%3A6969"],"infoHash":"8baadca5da6b9518d8d11eb8df57aaecd57e41ee","infoHashBuffer":{"type":"Buffer","data":[139,170,220,165,218,107,149,24,216,209,30,184,223,87,170,236,213,126,65,238]},"announce":[],"urlList":[]}}